<?xml version="1.0" encoding="utf-8"?>
<!-- Generator: Adobe Illustrator 21.0.0, SVG Export Plug-In . SVG Version: 6.00 Build 0)  -->
<svg version="1.1" id="Layer_1" xmlns="http://www.w3.org/2000/svg" xmlns:xlink="http://www.w3.org/1999/xlink" x="0px" y="0px"
	 viewBox="0 0 344 120" style="enable-background:new 0 0 344 120;" xml:space="preserve">
<style type="text/css">
	.st0{fill:#F5F7FC;}
	.st1{fill:#CAC0DF;}
</style>
<g>
	<path class="st0" d="M106.2,63.8c-1.1,0-2.1-0.7-2.5-1.7l-1-2.6H92.5l-1,2.6c-0.4,1-1.4,1.7-2.5,1.7c-1.6,0-2.7-1.4-2.7-2.8
		c0-0.3,0-0.7,0.2-1l7-18c0.6-1.6,2.2-2.7,3.9-2.7c1.8-0.2,3.7,1,4.3,2.7l7,18c0.1,0.3,0.2,0.6,0.2,1
		C108.9,62.4,107.9,63.8,106.2,63.8z M97.6,44.7L93.9,55h7.5L97.6,44.7z"/>
	<path class="st0" d="M127.8,63.6H114c-1.4,0-2.8-1.2-2.8-2.9c0-0.6,0.2-1.2,0.5-1.7l11-15h-9.3c-1.2,0-2.2-1-2.2-2.3
		c0-1.2,1-2.2,2.2-2.2H127c1.3,0,2.7,1.2,2.7,2.8c0,0.6-0.2,1.3-0.6,1.8l-10.9,14.9h9.6c1.2,0,2.2,1,2.2,2.2
		C130,62.6,129,63.6,127.8,63.6z"/>
	<path class="st0" d="M136.2,63.8c-1.4,0-2.5-1.2-2.5-2.5V41.9c0-1.3,1.1-2.5,2.6-2.5c1.4,0,2.5,1.2,2.5,2.5v19.4
		C138.7,62.6,137.6,63.8,136.2,63.8z"/>
	<path class="st0" d="M157.5,54.4l3.3,5.6c0.2,0.4,0.3,0.8,0.3,1.2c0,1.2-1,2.5-2.5,2.5c-0.9,0-1.8-0.5-2.2-1.3l-4.1-7.5h-3.8v6.2
		c0,1.4-1.2,2.5-2.6,2.5c-1.3,0-2.5-1.1-2.5-2.5V42.4c0-1.6,1.3-2.9,2.9-2.9h8.3c5,0,8.1,3.3,8.1,7.8
		C162.8,51.6,160.1,53.8,157.5,54.4z M148.6,44.1v6.5h5.4c2.1,0,3.6-1.2,3.6-3.2c0-2.1-1.6-3.2-3.6-3.2
		C154,44.1,148.6,44.1,148.6,44.1z"/>
	<path class="st0" d="M181.7,63.6h-12.2c-1.6,0-2.9-1.3-2.9-2.9V42.4c0-1.6,1.3-2.9,2.9-2.9h12.2c1.2,0,2.2,1,2.2,2.2
		c0,1.2-1,2.2-2.2,2.2h-9.9v5.1h9.7c1.2,0,2.2,1,2.2,2.2c0,1.2-1,2.2-2.2,2.2h-9.7v5.5h9.9c1.2,0,2.2,1,2.2,2.2
		C183.9,62.6,182.8,63.6,181.7,63.6z"/>
	<path class="st0" d="M208.7,42.9l-7,18.2c-0.6,1.6-2.2,2.7-3.9,2.7h-0.5c-1.7,0-3.3-1.1-3.9-2.7l-7-18.2c-0.2-0.3-0.2-0.6-0.2-1
		c0-1.3,1.1-2.6,2.7-2.6c1.1,0,2.1,0.7,2.6,1.8l6.1,17l6.1-16.9c0.3-1,1.4-1.8,2.5-1.8c1.6,0,2.8,1.3,2.8,2.7
		C208.9,42.3,208.8,42.7,208.7,42.9z"/>
	<path class="st0" d="M223.5,55h-6.1v6.2c0,1.3-1.1,2.5-2.6,2.5c-1.4,0-2.5-1.2-2.5-2.5V42.4c0-1.6,1.3-2.9,2.9-2.9h8.4
		c5.2,0,8.1,3.5,8.1,7.8C231.6,51.5,228.7,55,223.5,55z M222.8,44.1h-5.4v6.5h5.4c2,0,3.6-1.2,3.6-3.2
		C226.3,45.3,224.8,44.1,222.8,44.1z"/>
	<path class="st0" d="M253,63.8c-0.9,0-1.9-0.5-2.6-1.3l-10.6-14.6v13.4c0,1.3-1.1,2.5-2.6,2.5c-1.4,0-2.5-1.2-2.5-2.5V42.6
		c0-1.7,1.4-3.3,3.4-3.3c1.1,0,2.1,0.5,2.8,1.4l10.2,13.9V41.9c0-1.3,1.1-2.5,2.6-2.5c1.4,0,2.5,1.2,2.5,2.5v18.8
		C256.2,62.3,254.9,63.8,253,63.8z"/>
</g>
<g>
	<path class="st1" d="M92.3,79l-1.2-4.5h0L89.9,79H88l-2.2-6.7h2l1.2,4.6h0l1.1-4.6H92l1.2,4.6h0.1l1.2-4.6h1.9L94.3,79
		C94.3,79,92.3,79,92.3,79z"/>
	<path class="st1" d="M100.9,69.8v3.5h0.1c0.2-0.4,0.5-0.7,0.9-0.8c0.3-0.2,0.7-0.2,1-0.2c0.5,0,0.9,0.1,1.2,0.2
		c0.3,0.2,0.5,0.3,0.8,0.5c0.2,0.2,0.3,0.6,0.4,0.8c0.1,0.3,0.1,0.7,0.1,1.2v4.2h-1.8v-3.8c0-0.6-0.1-1-0.2-1.2
		c-0.2-0.3-0.5-0.4-0.9-0.4c-0.5,0-0.8,0.2-1.1,0.4c-0.2,0.3-0.3,0.8-0.3,1.5v3.5h-1.9v-9.3H100.9z"/>
	<path class="st1" d="M110.8,77.4c0.3,0.2,0.7,0.4,1.2,0.4c0.3,0,0.7-0.1,0.9-0.3c0.2-0.2,0.5-0.4,0.5-0.6h1.6
		c-0.2,0.8-0.7,1.4-1.2,1.8c-0.5,0.3-1.2,0.5-1.9,0.5c-0.6,0-1-0.1-1.5-0.2c-0.4-0.2-0.8-0.4-1.1-0.7c-0.3-0.3-0.5-0.7-0.7-1.1
		c-0.1-0.4-0.2-0.9-0.2-1.4c0-0.5,0.1-1,0.2-1.4c0.2-0.5,0.4-0.8,0.7-1.1c0.3-0.3,0.7-0.6,1.1-0.8c0.4-0.2,0.9-0.2,1.4-0.2
		c0.5,0,1,0.1,1.5,0.3c0.4,0.2,0.8,0.5,1,0.9c0.2,0.3,0.5,0.8,0.6,1.2c0.1,0.5,0.1,1,0.1,1.5h-4.8C110.3,76.7,110.5,77.2,110.8,77.4
		z M112.9,73.9c-0.2-0.2-0.5-0.3-1-0.3c-0.3,0-0.5,0-0.8,0.2c-0.2,0.1-0.3,0.2-0.4,0.3s-0.2,0.3-0.2,0.4c-0.1,0.2-0.1,0.3-0.1,0.5h3
		C113.2,74.5,113.1,74.1,112.9,73.9z"/>
	<path class="st1" d="M120,72.3v1h0c0.2-0.4,0.6-0.7,0.9-0.8c0.3-0.2,0.8-0.2,1.2-0.2c0.5,0,0.9,0,1.2,0.2c0.3,0.2,0.5,0.3,0.8,0.6
		c0.2,0.2,0.3,0.5,0.4,0.8c0,0.3,0.1,0.7,0.1,1.2v4.2h-1.8v-3.8c0-0.5-0.1-0.9-0.2-1.2c-0.2-0.3-0.5-0.4-0.9-0.4
		c-0.5,0-0.8,0.2-1.1,0.5c-0.2,0.3-0.3,0.8-0.3,1.5v3.5h-1.8v-6.8H120z"/>
	<path class="st1" d="M135.3,72.3v0.8h0c0.2-0.3,0.5-0.7,0.9-0.8c0.3-0.2,0.8-0.2,1.1-0.2c0.6,0,1,0.1,1.4,0.3
		c0.4,0.2,0.7,0.5,0.9,0.8s0.4,0.7,0.6,1.2c0.1,0.4,0.2,0.9,0.2,1.3s-0.1,0.9-0.2,1.3c-0.1,0.4-0.3,0.8-0.6,1.1
		c-0.2,0.3-0.6,0.6-0.9,0.8c-0.4,0.2-0.8,0.3-1.3,0.3c-0.4,0-0.8-0.1-1.2-0.2c-0.3-0.2-0.6-0.4-0.8-0.8h-0.1v3.2h-1.8v-9H135.3z
		 M137.7,77.6c0.2-0.1,0.3-0.3,0.5-0.5c0.1-0.2,0.2-0.4,0.2-0.7c0.1-0.2,0.1-0.5,0.1-0.8c0-0.3,0-0.5-0.1-0.8s-0.2-0.5-0.3-0.7
		c-0.1-0.2-0.3-0.3-0.5-0.5s-0.4-0.2-0.8-0.2s-0.6,0-0.8,0.2s-0.3,0.3-0.5,0.5c-0.1,0.2-0.2,0.5-0.2,0.7s-0.1,0.5-0.1,0.8
		s0,0.6,0.1,0.8s0.2,0.5,0.2,0.7c0.2,0.2,0.3,0.3,0.5,0.5c0.2,0.1,0.4,0.2,0.8,0.2C137.2,77.8,137.5,77.8,137.7,77.6z"/>
	<path class="st1" d="M145.2,72.3v1.2h0.1c0.1-0.2,0.2-0.4,0.3-0.6c0.2-0.2,0.3-0.3,0.5-0.4c0.2-0.2,0.4-0.2,0.6-0.3
		s0.4-0.1,0.7-0.1c0.1,0,0.2,0,0.4,0.1v1.7c-0.1,0-0.2,0-0.3,0c-0.1,0-0.2,0-0.4,0c-0.3,0-0.6,0-0.8,0.2c-0.2,0.1-0.4,0.2-0.6,0.4
		c-0.2,0.2-0.2,0.4-0.3,0.7c-0.1,0.2-0.1,0.5-0.1,0.8v3h-1.9v-6.7H145.2z"/>
	<path class="st1" d="M150.6,71.3v-1.5h1.9v1.5H150.6z M152.4,72.3V79h-1.9v-6.7H152.4z"/>
	<path class="st1" d="M157.5,79l-2.3-6.7h1.9l1.4,4.6h0.1l1.4-4.6h1.9l-2.3,6.7H157.5z"/>
	<path class="st1" d="M164.5,74.4c0.1-0.5,0.2-0.8,0.3-1.1c0.2-0.3,0.4-0.5,0.8-0.7c0.3-0.2,0.7-0.3,1-0.3c0.4,0,0.8-0.1,1.1-0.1
		c0.3,0,0.7,0,1.1,0.1c0.3,0,0.6,0.2,0.9,0.3c0.3,0.2,0.5,0.3,0.7,0.6s0.2,0.6,0.2,1v3.5c0,0.3,0,0.6,0.1,0.8s0.1,0.5,0.2,0.6H169
		c-0.1-0.1-0.1-0.2-0.1-0.3c0-0.1-0.1-0.2-0.1-0.3c-0.3,0.3-0.7,0.5-1.1,0.7c-0.4,0.1-0.8,0.2-1.2,0.2c-0.3,0-0.6,0-0.9-0.1
		c-0.3-0.1-0.5-0.2-0.8-0.3c-0.2-0.1-0.3-0.3-0.5-0.6c-0.1-0.2-0.2-0.5-0.2-0.9c0-0.4,0.1-0.7,0.2-0.9c0.2-0.2,0.3-0.5,0.5-0.6
		c0.2-0.2,0.4-0.2,0.8-0.3c0.2-0.1,0.6-0.2,0.9-0.2c0.3,0,0.6-0.1,0.8-0.1c0.2,0,0.5,0,0.7-0.1c0.2,0,0.3-0.2,0.5-0.2
		c0.1-0.1,0.2-0.2,0.1-0.4c0-0.2-0.1-0.3-0.1-0.5c-0.1-0.1-0.2-0.2-0.2-0.2c-0.1,0-0.2-0.1-0.4-0.2c-0.1,0-0.3,0-0.4,0
		c-0.3,0-0.6,0.1-0.8,0.2s-0.4,0.4-0.4,0.8L164.5,74.4L164.5,74.4z M168.8,75.7c-0.1,0-0.2,0.1-0.3,0.2c-0.1,0-0.2,0-0.4,0.1
		c-0.2,0-0.3,0-0.4,0c-0.1,0-0.3,0.1-0.4,0.1c-0.1,0-0.2,0-0.4,0.1c-0.2,0-0.2,0.1-0.4,0.2c-0.1,0.1-0.2,0.2-0.2,0.3
		c-0.1,0.1-0.1,0.2-0.1,0.4c0,0.2,0.1,0.3,0.1,0.4c0.1,0.1,0.2,0.2,0.2,0.2c0.1,0.1,0.2,0.1,0.4,0.2c0.1,0.1,0.3,0.1,0.4,0.1
		c0.3,0,0.6-0.1,0.8-0.2c0.2-0.1,0.4-0.2,0.4-0.4c0.1-0.2,0.2-0.3,0.2-0.5c0.1-0.2,0.1-0.3,0.1-0.4L168.8,75.7L168.8,75.7z"/>
	<path class="st1" d="M177.3,73.5c-0.3,0-0.6,0.1-0.8,0.2s-0.3,0.3-0.5,0.5c-0.1,0.2-0.2,0.4-0.2,0.7s-0.1,0.5-0.1,0.8
		s0.1,0.5,0.1,0.8c0.1,0.2,0.2,0.5,0.2,0.7c0.1,0.2,0.3,0.3,0.4,0.5c0.2,0.2,0.4,0.2,0.8,0.2c0.4,0,0.8-0.1,1-0.3s0.4-0.6,0.4-1h1.8
		c-0.1,0.9-0.4,1.6-1.1,2.1c-0.6,0.4-1.3,0.7-2.2,0.7c-0.5,0-0.9-0.1-1.4-0.2c-0.5-0.2-0.8-0.4-1.1-0.7c-0.3-0.3-0.5-0.7-0.7-1.1
		c-0.2-0.4-0.2-0.9-0.2-1.4s0.1-1,0.2-1.5c0.1-0.4,0.3-0.8,0.6-1.2c0.3-0.3,0.7-0.6,1.1-0.8c0.4-0.2,0.9-0.2,1.4-0.2
		c0.4,0,0.8,0.1,1.1,0.2c0.4,0.1,0.7,0.2,1,0.5c0.3,0.2,0.6,0.5,0.7,0.8c0.2,0.3,0.3,0.7,0.3,1.1h-1.8
		C178.5,73.9,178.1,73.5,177.3,73.5z"/>
	<path class="st1" d="M186,81c-0.4,0.2-0.9,0.3-1.5,0.3c-0.2,0-0.4,0-0.6,0c-0.2,0-0.4,0-0.6,0v-1.5c0.1,0,0.3,0,0.6,0
		c0.2,0,0.3,0,0.6,0c0.2,0,0.4-0.1,0.6-0.3c0.1-0.2,0.2-0.3,0.2-0.6c0-0.2-0.1-0.3-0.1-0.4l-2.3-6.3h1.9l1.5,4.6h0.1l1.4-4.6h1.9
		l-2.8,7.5C186.6,80.4,186.4,80.8,186,81z"/>
	<path class="st1" d="M199.6,72.3v0.9h0.1c0.2-0.3,0.6-0.6,0.9-0.8c0.3-0.2,0.8-0.3,1.2-0.3c0.4,0,0.8,0.1,1.1,0.2
		c0.4,0.2,0.6,0.5,0.8,0.8c0.2-0.3,0.4-0.5,0.8-0.8s0.8-0.3,1.2-0.3c0.4,0,0.7,0,1,0.2c0.3,0.1,0.6,0.2,0.8,0.4s0.4,0.4,0.5,0.8
		c0.1,0.3,0.2,0.7,0.2,1.1V79h-1.8v-3.8c0-0.2,0-0.4-0.1-0.7c0-0.2-0.1-0.3-0.2-0.5c-0.1-0.2-0.2-0.2-0.3-0.3
		c-0.2-0.1-0.4-0.2-0.6-0.2s-0.4,0.1-0.6,0.2c-0.2,0.1-0.3,0.2-0.4,0.4c-0.1,0.2-0.1,0.3-0.2,0.6c0,0.2-0.1,0.4-0.1,0.6V79h-1.8
		v-3.8c0-0.2,0-0.4,0-0.6c0-0.2-0.1-0.4-0.1-0.6c0-0.1-0.1-0.3-0.3-0.4c-0.2-0.1-0.4-0.2-0.7-0.2c-0.1,0-0.2,0-0.3,0.1
		c-0.2,0-0.3,0.1-0.4,0.2c-0.1,0.1-0.2,0.2-0.3,0.5c-0.1,0.2-0.2,0.4-0.2,0.8v3.9h-1.8v-6.6H199.6z"/>
	<path class="st1" d="M211.5,74.4c0.1-0.5,0.2-0.8,0.4-1.1c0.2-0.3,0.4-0.5,0.8-0.7c0.3-0.2,0.6-0.3,1-0.3c0.3,0,0.8-0.1,1.1-0.1
		s0.7,0,1.1,0.1c0.4,0,0.6,0.2,0.9,0.3c0.3,0.2,0.5,0.3,0.7,0.6s0.2,0.6,0.2,1v3.5c0,0.3,0,0.6,0.1,0.8c0.1,0.3,0.1,0.5,0.2,0.6
		h-1.9c-0.1-0.1-0.1-0.2-0.1-0.3c0-0.1-0.1-0.2-0.1-0.3c-0.3,0.3-0.6,0.5-1.1,0.7c-0.4,0.1-0.8,0.2-1.2,0.2c-0.3,0-0.6,0-0.9-0.1
		c-0.3-0.1-0.5-0.2-0.8-0.3c-0.2-0.1-0.4-0.3-0.5-0.6c-0.1-0.2-0.2-0.5-0.2-0.9c0-0.4,0.1-0.7,0.2-0.9s0.3-0.5,0.5-0.6
		c0.2-0.2,0.4-0.2,0.8-0.3c0.2-0.1,0.5-0.2,0.8-0.2c0.3,0,0.6-0.1,0.8-0.1s0.5,0,0.7-0.1c0.2,0,0.4-0.2,0.5-0.2
		c0.1-0.1,0.2-0.2,0.1-0.4c0-0.2-0.1-0.3-0.1-0.5c-0.1-0.1-0.1-0.2-0.2-0.2c-0.1,0-0.2-0.1-0.4-0.2c-0.1,0-0.3,0-0.4,0
		c-0.4,0-0.6,0.1-0.9,0.2c-0.2,0.2-0.4,0.4-0.4,0.8L211.5,74.4L211.5,74.4z M215.8,75.7c-0.1,0-0.2,0.1-0.3,0.2
		c-0.1,0-0.2,0-0.4,0.1c-0.1,0-0.2,0-0.4,0s-0.3,0.1-0.4,0.1c-0.1,0-0.3,0-0.4,0.1c-0.1,0-0.2,0.1-0.4,0.2c-0.1,0.1-0.2,0.2-0.2,0.3
		c-0.1,0.1-0.1,0.2-0.1,0.4c0,0.2,0.1,0.3,0.1,0.4s0.1,0.2,0.2,0.2c0.1,0.1,0.2,0.1,0.4,0.2c0.1,0.1,0.3,0.1,0.4,0.1
		c0.4,0,0.6-0.1,0.9-0.2c0.2-0.1,0.4-0.2,0.4-0.4c0.1-0.2,0.1-0.3,0.2-0.5s0.1-0.3,0.1-0.4L215.8,75.7L215.8,75.7z"/>
	<path class="st1" d="M224.8,72.3v1.2h-1.4v3.3c0,0.3,0.1,0.5,0.1,0.6c0.1,0.1,0.3,0.2,0.6,0.2c0.1,0,0.2,0,0.3,0s0.2,0,0.2,0v1.4
		c-0.1,0.1-0.4,0.1-0.5,0.1c-0.2,0-0.4,0-0.6,0c-0.3,0-0.6,0-0.8-0.1c-0.2,0-0.5-0.1-0.7-0.2c-0.2-0.1-0.4-0.2-0.4-0.5
		c-0.1-0.2-0.1-0.5-0.1-0.8v-4h-1.1v-1.2h1.1v-2h1.9v2H224.8z"/>
	<path class="st1" d="M231.3,72.3v1.2H230v3.3c0,0.3,0.1,0.5,0.1,0.6c0.1,0.1,0.3,0.2,0.6,0.2c0.1,0,0.2,0,0.3,0s0.2,0,0.2,0v1.4
		c-0.1,0.1-0.4,0.1-0.5,0.1c-0.2,0-0.4,0-0.6,0c-0.3,0-0.6,0-0.8-0.1c-0.2,0-0.5-0.1-0.7-0.2c-0.2-0.1-0.4-0.2-0.4-0.5
		c-0.1-0.2-0.1-0.5-0.1-0.8v-4H227v-1.2h1.1v-2h1.9v2H231.3z"/>
	<path class="st1" d="M236.2,77.4c0.3,0.2,0.7,0.4,1.2,0.4c0.4,0,0.7-0.1,0.9-0.3c0.2-0.2,0.4-0.4,0.5-0.6h1.6
		c-0.2,0.8-0.6,1.4-1.2,1.8s-1.2,0.5-1.9,0.5c-0.6,0-1-0.1-1.4-0.2s-0.8-0.4-1.1-0.7c-0.3-0.3-0.5-0.7-0.7-1.1
		c-0.1-0.4-0.2-0.9-0.2-1.4c0-0.5,0.1-1,0.2-1.4c0.1-0.5,0.4-0.8,0.7-1.1c0.3-0.3,0.6-0.6,1.1-0.8c0.4-0.2,0.9-0.2,1.4-0.2
		c0.6,0,1.1,0.1,1.5,0.3c0.4,0.2,0.8,0.5,1.1,0.9c0.2,0.3,0.4,0.8,0.6,1.2c0.1,0.5,0.1,1,0.1,1.5h-4.9
		C235.7,76.7,235.9,77.2,236.2,77.4z M238.3,73.9c-0.2-0.2-0.6-0.3-1-0.3c-0.3,0-0.6,0-0.8,0.2c-0.2,0.1-0.4,0.2-0.4,0.3
		c-0.1,0.2-0.2,0.3-0.2,0.4s-0.1,0.3-0.1,0.5h3C238.6,74.5,238.5,74.1,238.3,73.9z"/>
	<path class="st1" d="M245.4,72.3v1.2h0.1c0.1-0.2,0.2-0.4,0.4-0.6s0.3-0.3,0.5-0.4c0.2-0.2,0.4-0.2,0.6-0.3c0.2,0,0.4-0.1,0.7-0.1
		c0.1,0,0.2,0,0.4,0.1v1.7c-0.1,0-0.2,0-0.3,0s-0.2,0-0.4,0c-0.4,0-0.6,0-0.9,0.2c-0.2,0.1-0.4,0.2-0.6,0.4
		c-0.1,0.2-0.2,0.4-0.3,0.7c-0.1,0.2-0.1,0.5-0.1,0.8v3h-1.9v-6.7H245.4z"/>
	<path class="st1" d="M252.2,77.4c0.1,0.2,0.2,0.2,0.3,0.3c0.1,0.1,0.3,0.2,0.4,0.2c0.1,0.1,0.4,0.1,0.6,0.1c0.1,0,0.2,0,0.4-0.1
		c0.1,0,0.2-0.1,0.4-0.2c0.1,0,0.2-0.2,0.3-0.2s0.1-0.2,0.1-0.4c0-0.3-0.2-0.5-0.6-0.6c-0.4-0.2-0.9-0.3-1.6-0.4
		c-0.2,0-0.6-0.2-0.8-0.2c-0.2-0.1-0.5-0.2-0.7-0.3c-0.2-0.2-0.4-0.3-0.5-0.5c-0.1-0.2-0.2-0.5-0.2-0.8c0-0.5,0.1-0.8,0.2-1.1
		s0.4-0.5,0.6-0.7c0.3-0.2,0.6-0.2,0.9-0.3s0.7-0.1,1.1-0.1s0.7,0.1,1.1,0.1c0.4,0.1,0.6,0.2,0.9,0.3c0.2,0.2,0.5,0.4,0.6,0.7
		c0.2,0.2,0.3,0.6,0.3,1.1h-1.8c-0.1-0.3-0.1-0.6-0.4-0.7c-0.2-0.2-0.6-0.2-0.9-0.2c-0.1,0-0.2,0-0.4,0c-0.1,0-0.2,0-0.4,0.1
		c-0.1,0-0.2,0.1-0.2,0.2c-0.1,0.1-0.1,0.2-0.1,0.3c0,0.2,0.1,0.3,0.2,0.4c0.1,0.1,0.3,0.2,0.4,0.2c0.2,0.1,0.4,0.1,0.6,0.2
		c0.2,0,0.5,0.1,0.8,0.2c0.2,0,0.6,0.2,0.8,0.2c0.2,0.1,0.5,0.2,0.7,0.3c0.2,0.2,0.4,0.3,0.5,0.6s0.2,0.4,0.2,0.8
		c0,0.5-0.1,0.8-0.2,1.1c-0.2,0.3-0.4,0.6-0.7,0.7c-0.3,0.2-0.6,0.3-1,0.4c-0.4,0-0.8,0.1-1.1,0.1c-0.4,0-0.8-0.1-1.1-0.1
		c-0.4-0.1-0.7-0.2-1-0.4c-0.3-0.2-0.6-0.4-0.7-0.7c-0.2-0.3-0.3-0.7-0.3-1.1h1.8C252.1,77.1,252.2,77.2,252.2,77.4z"/>
</g>
</svg>
