<?xml version="1.0" encoding="utf-8"?>
<!-- Generator: Adobe Illustrator 21.0.0, SVG Export Plug-In . SVG Version: 6.00 Build 0)  -->
<svg version="1.1" id="Layer_1" xmlns="http://www.w3.org/2000/svg" xmlns:xlink="http://www.w3.org/1999/xlink" x="0px" y="0px"
	 viewBox="0 0 16 16" style="enable-background:new 0 0 16 16;" xml:space="preserve">
<style type="text/css">
	.st0{fill:#565656;}
</style>
<g>
	<path class="st0" d="M12.3,14c-0.5,0-1-0.3-1.2-0.8l-0.5-1.3H5.5L5,13.2C4.8,13.7,4.3,14,3.7,14c-0.8,0-1.4-0.7-1.4-1.4
		c0-0.2,0-0.3,0.1-0.5l3.5-9c0.3-0.8,1.1-1.4,2-1.4c0.9-0.1,1.8,0.5,2.2,1.4l3.5,9c0.1,0.2,0.1,0.3,0.1,0.5
		C13.7,13.3,13.2,14,12.3,14z M8.1,4.5L6.2,9.6h3.7L8.1,4.5z"/>
</g>
</svg>
